<?xml version="1.0" encoding="UTF-8"?>
<svg id="Calque_2" data-name="Calque 2" xmlns="http://www.w3.org/2000/svg" viewBox="0 0 77.62 77.62">
  <defs>
    <style>
      .cls-1 {
        fill: #fff;
      }
    </style>
  </defs>
  <g id="Plan_6" data-name="Plan 6">
    <g>
      <path class="cls-1" d="M77.62,38.81c0,21.43-17.38,38.81-38.81,38.81S0,60.25,0,38.81,17.38,0,38.81,0s38.81,17.38,38.81,38.81ZM48.1,44c8.16,3.3,13.68,10.12,15.54,18.85,13.45-13.81,12.79-35.63-.62-48.74C49.46.84,27.88.93,14.43,14.28,1.16,27.45.61,49.12,13.98,62.85c1.86-8.82,7.6-15.75,15.61-18.83,5.91,3.25,12.53,3.22,18.51-.01Z"/>
      <circle class="cls-1" cx="38.81" cy="27.56" r="14.69"/>
    </g>
  </g>
</svg>