<?xml version="1.0" encoding="UTF-8"?>
<svg id="Calque_2" data-name="Calque 2" xmlns="http://www.w3.org/2000/svg" viewBox="0 0 160.61 155.96">
  <defs>
    <style>
      .cls-1, .cls-2, .cls-3 {
        fill: none;
      }

      .cls-1, .cls-4, .cls-3 {
        stroke: #000;
        stroke-miterlimit: 10;
      }

      .cls-4 {
        fill: #fff;
        stroke-width: 4px;
      }

      .cls-3 {
        stroke-linecap: round;
      }
    </style>
  </defs>
  <g id="Calque_1-2" data-name="Calque 1">
    <ellipse class="cls-4" cx="80.3" cy="77.98" rx="78.3" ry="75.98"/>
    <g>
      <path class="cls-2" d="M32.01,138.9V12.18h96.59v126.95H32.01v-.23ZM76,63.39c-.08-1.85,6.11-.6,9.1-1.59-2.48-4.88-4.94-9.42-6.73-15.66,2.32-11.61-8.32-19.77-7.76-17.63.52,1.96,1.21,2.25.85,2.66-.27.31-1.3.64-1.74.61l-4.88-.37c-.69-.05-1.96-.5-2.78-.68.08-.8,1.23-2.01,2.1-2.27l3.45-1.03c-1.37-.38-2.6-.55-3.88-.39-5.03.61-9.7.42-14.7-.2-1.57-.19-3.08-.18-4.38,1l3.47.69-3.35.65c4.26,1.7,8.31,2.75,11.96,5.23,1.91,1.3,3.59,3.16,5.36,4.63,3.99,3.31-1.23,4.68,1.75,7.49,1.04.98,1.76,1.91,2.73,2.9l4.53,4.58c.87.88,1.33,3.67,1.02,4.84-1.61,2.49-.74,14.05,1.89,12.71,1.16-.59.01-1.01,1.87-5.03.29-.62.15-2.07.11-3.14ZM102.86,74.2l4.15,1.05c3.44.87,9.78,5.19,9.79,3.2v-2.13s2.28-.49,2.28-.49c.04-5.03-8.86-8.89-12.95-10.44l-6.18-2.34c-.44.28-.72.68-.44.87,3.02.64,5.04,1.94,5.31,5.09-1.59.24-2.85.26-4.26,1.88l7.65,2.3,3.86,1.04c-4.64.38-8.87-2.32-13.44-1.09l4.22,1.07ZM91.76,106.73l4.72,1c-.41-1.92-.65-2.93-.83-4.35l-1.21-9.38c-.89-6.86-3.01-13.45-5.15-19.99-2.19-.35-4.31-1.06-6.4-1.9-.98-.08-2.25,1.97-2.05,3,.48,2.53-.93,3.78-1.62,5.84-.89,2.65.15,6.15-.48,8.86-.5,2.17.32,3.22,1.16,5.04l2.66,5.71c1.93,4.14,5.36,5.35,9.2,6.16ZM87.84,131.13c-.6-.9-1-1.45-1.09-1.88-.26-1.3,2.54-3.06,3.41-4.09,1.95-2.31,4.2-3.39,7.22-2.71l3.45.79-.71-2.14,1.73.75c.64-1.46,1.76-2.26,3.08-1.79.94.34,2,2.35.52,2.63s-3.37-.28-3.83,1.6c2.4,2.59,5.48,4.13,8.64,5.59l1.6.74c.28.13.85-.44,1.33-.76l3.52,1.85,1.32-.48c1.47.63,6.81,1.69,6.98-.59l-16.2-9.04c-1.17-.65-2.65-1.78-3.78-2.6-1.19-.87-2.44-2.56-3.72-2.89-1.94,1.74-3.95,2.3-5.99,2.21-1.11,1.13-2.61,2.08-4.41,2.59-4.77,2.95-3.68,1.67-5.91,6.56-1.25.06-2-1.5-1.55-2.53l1.77-4.08-3.55-.5c-1.41-.2-2.84-.2-4.17,0,1.85.51,3.25.9,4.82,1.56-1.08,2.5-1.9,4.38-2.87,6.29-1.03,2.03-3.85.1-5.19.05l-5.98-.22c-1.25-.05-2.22.26-3.05,1.28l5.25.49,9.25.77c1.03.09,2.55.26,3.21-.15.26-.16.65-1.59.85-1.36l.97,1.11c.78.9,2.16,1.3,3.08.95Z"/>
      <path d="M75.83,63.39c.05,1.07.18,2.52-.11,3.14-1.86,4.02-.71,4.44-1.87,5.03-2.63,1.34-3.5-10.22-1.89-12.71.31-1.17-.15-3.95-1.02-4.84l-4.53-4.58c-.98-.99-1.69-1.91-2.73-2.9-2.98-2.81,2.24-4.18-1.75-7.49-1.77-1.47-3.45-3.32-5.36-4.63-3.65-2.49-7.7-3.53-11.96-5.23l3.35-.65-3.47-.69c1.3-1.18,2.81-1.19,4.38-1,5,.62,9.67.81,14.7.2,1.28-.16,2.52.01,3.88.39l-3.45,1.03c-.87.26-2.02,1.47-2.1,2.27.82.18,2.09.63,2.78.68l4.88.37c.43.03,1.47-.3,1.74-.61.36-.41-.34-.7-.85-2.66-.56-2.14,10.07,6.02,7.76,17.63.43,4.15,1.86,6.74,3.11,8.34,0,0,2.87,3.69,18.48,8.58,0,0,0,0,0,0,0,0,1.8.81,1.73,1.04-.06.22-1.72-.09-2.17-.18-1.03-.19-1.54-.29-2.57-.63-1.16-.39-4.07-.91-11.84-1.49-6.73-.46-9.15.44-9.1,1.59Z"/>
      <path d="M91.59,106.73c-3.84-.82-7.27-2.02-9.2-6.16l-2.66-5.71c-.85-1.82-1.66-2.87-1.16-5.04.63-2.71-.41-6.2.48-8.86.69-2.06,2.1-3.32,1.62-5.84-.2-1.03,1.07-3.08,2.05-3,.88.4,1.94.8,3.17,1.13,1.32.35,2.51.53,3.52.62.97,3.13,1.9,6.47,2.75,10.03.85,3.53,1.54,6.91,2.11,10.12l1.21,9.38c.18,1.42.43,2.43.83,4.35l-4.72-1Z"/>
      <path d="M87.67,131.13c-.92.36-2.29-.05-3.08-.95l-.97-1.11c-.2-.23-.59,1.2-.85,1.36-.65.41-2.18.23-3.21.15l-9.25-.77-5.25-.49c.83-1.03,1.8-1.33,3.05-1.28l5.98.22c1.35.05,4.16,1.98,5.19-.05.97-1.91,1.79-3.79,2.87-6.29-1.56-.66-2.97-1.05-4.82-1.56,1.33-.2,2.76-.19,4.17,0l3.55.5-1.77,4.08c-.45,1.03.3,2.59,1.55,2.53,2.24-4.9,1.14-3.62,5.91-6.56,1.79-.5,3.29-1.46,4.41-2.59,2.04.09,4.04-.47,5.99-2.21,1.28.34,2.53,2.03,3.72,2.89s2.61,1.95,3.78,2.6l16.2,9.04c-.17,2.27-5.5,1.21-6.98.59l-1.32.48-3.52-1.85c-.48.33-1.05.9-1.33.76l-1.6-.74c-3.17-1.47-6.25-3-8.64-5.59.46-1.89,2.4-1.33,3.83-1.6s.42-2.3-.52-2.63c-1.32-.47-2.44.33-3.08,1.79l-1.73-.75.71,2.14-3.45-.79c-3.02-.69-5.26.4-7.22,2.71-.88,1.03-3.68,2.8-3.41,4.09.09.43.49.98,1.09,1.88Z"/>
      <path d="M105.97,65.39l-6.18-2.34c-.44.28-.72.68-.44.87,3.02.64,5.04,1.94,5.31,5.09-1.59.24-2.85.26-4.26,1.88l7.65,2.3,3.86,1.04c-4.64.38-8.87-2.32-13.44-1.09l4.22,1.07,4.15,1.05c3.44.87,9.78,5.19,9.79,3.2v-2.13s2.28-.49,2.28-.49c.04-5.03-8.86-8.89-12.95-10.44Z"/>
      <path class="cls-1" d="M63.71,43.11c-1.36,4.06-3.17,10.32-4.19,18.13-2.53,19.21-.66,51.59,14.9,57.93,1.54.63,7.1,2.43,10.12,2.31"/>
      <path class="cls-3" d="M94.59,102.97s1.11,6.32,3.44,9.9c1.97,3.03,5.27,5.47,5.37,5.6"/>
    </g>
  </g>
</svg>