<?xml version="1.0" encoding="UTF-8"?>
<svg id="Calque_2" data-name="Calque 2" xmlns="http://www.w3.org/2000/svg" viewBox="0 0 160 160">
  <defs>
    <style>
      .cls-1, .cls-2 {
        fill: none;
        stroke: #000;
        stroke-miterlimit: 10;
      }

      .cls-3 {
        fill: #fff;
      }

      .cls-2 {
        stroke-linecap: round;
      }
    </style>
  </defs>
  <g id="Calque_1-2" data-name="Calque 1">
    <rect class="cls-3" width="160" height="160"/>
    <path d="M69.27,57.4c.07,1.6.27,3.77-.16,4.7-2.77,6.01-1.06,6.64-2.79,7.52-3.93,2-5.23-15.28-2.82-18.99.46-1.75-.22-5.91-1.53-7.23l-6.76-6.85c-1.46-1.48-2.53-2.86-4.09-4.33-4.45-4.21,3.35-6.25-2.61-11.19-2.65-2.2-5.16-4.97-8.01-6.91-5.46-3.72-11.52-5.28-17.88-7.82l5.01-.98-5.19-1.03c1.95-1.76,4.2-1.78,6.55-1.49,7.48.92,14.45,1.21,21.97.29,1.92-.23,3.76.02,5.8.59l-5.16,1.54c-1.3.39-3.02,2.19-3.14,3.39,1.23.27,3.13.95,4.15,1.02l7.3.55c.65.05,2.2-.45,2.6-.91.53-.61-.51-1.05-1.28-3.98-.84-3.2,15.06,9,11.59,26.35.64,6.21,2.78,10.07,4.64,12.46,0,0,4.29,5.52,27.62,12.82,0,0,0,0,0,0,0,0,2.69,1.21,2.59,1.56-.1.33-2.57-.14-3.24-.26-1.53-.29-2.3-.43-3.85-.95-1.73-.58-6.08-1.36-17.7-2.23-10.06-.68-13.68.65-13.61,2.38Z"/>
    <path d="M92.83,122.18c-5.74-1.22-10.87-3.03-13.75-9.21l-3.97-8.53c-1.26-2.71-2.49-4.29-1.74-7.53.94-4.05-.62-9.27.71-13.24,1.04-3.08,3.13-4.96,2.42-8.73-.29-1.54,1.6-4.61,3.07-4.49,1.31.59,2.9,1.2,4.74,1.69,1.97.53,3.76.8,5.26.93,1.44,4.68,2.84,9.68,4.12,14.98,1.27,5.27,2.31,10.33,3.15,15.12l1.81,14.01c.27,2.12.64,3.63,1.24,6.5l-7.05-1.5Z"/>
    <path d="M86.97,158.65c-1.38.53-3.42-.07-4.6-1.41l-1.46-1.66c-.3-.34-.88,1.8-1.27,2.04-.98.61-3.25.35-4.79.22l-13.83-1.15-7.85-.74c1.25-1.54,2.68-1.99,4.56-1.92l8.93.33c2.01.07,6.22,2.96,7.76-.07,1.45-2.86,2.67-5.67,4.29-9.4-2.34-.99-4.44-1.57-7.2-2.33,1.98-.29,4.13-.29,6.23,0l5.3.75-2.64,6.09c-.67,1.54.44,3.87,2.32,3.78,3.34-7.32,1.71-5.41,8.84-9.81,2.68-.75,4.92-2.18,6.58-3.86,3.04.13,6.04-.7,8.95-3.31,1.91.5,3.78,3.03,5.56,4.33s3.91,2.91,5.66,3.89l24.21,13.51c-.25,3.4-8.22,1.81-10.43.87l-1.97.72-5.26-2.76c-.72.49-1.57,1.34-1.99,1.14l-2.38-1.1c-4.74-2.19-9.34-4.49-12.92-8.36.69-2.82,3.58-1.99,5.73-2.4s.63-3.43-.77-3.93c-1.97-.71-3.64.49-4.6,2.67l-2.58-1.11,1.05,3.2-5.16-1.18c-4.51-1.03-7.87.6-10.79,4.04-1.31,1.55-5.49,4.18-5.1,6.12.13.64.74,1.46,1.63,2.81Z"/>
    <path d="M114.32,60.4l-9.24-3.5c-.66.42-1.07,1.02-.65,1.3,4.52.95,7.54,2.9,7.93,7.6-2.38.36-4.25.38-6.37,2.8l11.43,3.44,5.77,1.55c-6.94.56-13.26-3.47-20.08-1.63l6.31,1.6,6.21,1.57c5.15,1.3,14.62,7.76,14.63,4.79l.02-3.19,3.4-.73c.07-7.52-13.24-13.29-19.35-15.61Z"/>
    <path class="cls-1" d="M51.16,27.1c-2.03,6.07-4.73,15.43-6.27,27.09-3.78,28.71-.98,77.11,22.27,86.58,2.3.94,10.61,3.63,15.13,3.45"/>
    <path class="cls-2" d="M97.3,116.56c.02.06,1.66,9.45,5.15,14.79,2.95,4.52,7.87,8.17,8.02,8.37"/>
  </g>
</svg>