<?xml version="1.0" encoding="UTF-8"?>
<svg id="Calque_2" data-name="Calque 2" xmlns="http://www.w3.org/2000/svg" viewBox="0 0 50.35 25.15">
  <g id="Plan_6" data-name="Plan 6">
    <path d="M32.64,13.39l2.02,9.95c.08.9-.54,1.63-1.32,1.78-.91.18-1.76-.34-1.99-1.26l-2.03-9.89c-2.87.34-5.56.32-8.33,0l-2,9.79c-.18.93-1.01,1.49-1.91,1.36-.83-.12-1.49-.86-1.42-1.8l2.03-9.94c-3.04-.71-5.88-1.82-8.59-3.38l-6.15,8.01c-.62.65-1.56.76-2.29.24-.64-.46-.93-1.49-.37-2.24l6-7.83C4.06,6.51,2.03,4.68.29,2.52-.26,1.84.04.84.61.39c.64-.51,1.66-.55,2.24.1,1.49,1.66,3,3.18,4.77,4.56,3.91,3.02,8.44,4.95,13.36,5.61,7.52,1.01,14.84-.62,20.99-5.06,2.07-1.49,3.82-3.21,5.5-5.11.56-.63,1.54-.61,2.18-.14.58.42.95,1.42.41,2.12-1.32,1.72-2.92,3.18-4.6,4.62l4.73,9.28c.41.81-.17,1.75-.81,2.05-.83.39-1.71.11-2.21-.65l-4.44-8.69c-3.11,2.01-6.34,3.45-10.1,4.31Z"/>
  </g>
</svg>