<svg xmlns="http://www.w3.org/2000/svg" id="Calque_2" data-name="Calque 2" viewBox="0 0 218.2 107.38"><defs><style>.cls-1,.cls-2,.cls-3,.cls-4,.cls-5{stroke:#000;stroke-miterlimit:10}.cls-1,.cls-3,.cls-4,.cls-5,.cls-6{fill:none}.cls-2{fill:#fff}.cls-2,.cls-3,.cls-4{stroke-linecap:round}.cls-2,.cls-3,.cls-5{stroke-width:4px}</style></defs><g id="Calque_1-2" data-name="Calque 1"><g><polygon points="0 107.19 0 0 81.7 0 81.7 107.38 0 107.38 0 107.19" class="cls-6"/><path d="M37.21,43.31c-.07-1.57,5.16-.51,7.7-1.35-2.1-4.13-4.17-7.97-5.69-13.24,1.96-9.82-7.04-16.72-6.56-14.91.44,1.66,1.02,1.91.72,2.25-.23.26-1.1.54-1.47.51l-4.13-.31c-.58-.04-1.66-.43-2.35-.58.07-.67,1.04-1.7,1.78-1.92l2.92-.87c-1.15-.32-2.2-.46-3.28-.33-4.25.52-8.2.36-12.43-.17-1.33-.16-2.6-.15-3.71.84l2.94.58-2.83.55c3.6,1.44,7.03,2.32,10.12,4.43,1.62,1.1,3.04,2.67,4.53,3.91,3.37,2.8-1.04,3.96,1.48,6.34.88.83,1.48,1.61,2.31,2.45l3.83,3.88c.74.75,1.13,3.1.86,4.09-1.36,2.1-.62,11.88,1.6,10.75.98-.5,0-.85,1.58-4.25.24-.53.13-1.75.09-2.66Z" class="cls-6"/><path d="M59.93,52.46l3.51.89c2.91.74,8.27,4.39,8.28,2.71v-1.8s1.93-.41,1.93-.41c-.46-5.95-11.52-8.85-16.18-10.81-.37.24-.61.58-.37.73,2.56.54,4.27,1.64,4.49,4.3-1.35.2-2.41.22-3.61,1.59l6.47,1.95,3.26.88c-3.93.32-7.5-1.96-11.36-.92l3.57.91Z" class="cls-6"/><path d="M50.54,79.98l3.99.85c-.71-2.76-1.34-8.83-1.73-11.61-.75-5.8-2.55-11.38-4.35-16.91-1.85-.3-3.64-.9-5.42-1.61-.83-.07-1.9,1.67-1.74,2.54.41,2.14-.78,3.2-1.37,4.94-.75,2.25.13,5.2-.4,7.49-.42,1.84.27,2.73.98,4.26,2.72,5.81,3.2,8.73,10.03,10.04Z" class="cls-6"/><path d="M47.22,100.62c-.5-.76-.85-1.23-.92-1.59-.22-1.1,2.15-2.59,2.89-3.46,2.8-3.35,5.3-2.54,9.03-1.62l-.6-1.81,1.46.63c.54-1.23,1.49-1.91,2.61-1.51.8.29,1.69,1.99.44,2.23s-2.85-.24-3.24,1.36c2.35,2.55,5.56,3.92,8.66,5.35.24.11.72-.37,1.13-.65l2.97,1.56,1.12-.41c1.25.53,5.76,1.43,5.9-.5l-13.7-7.65c-.99-.55-2.24-1.5-3.2-2.2-1.01-.73-2.06-2.16-3.14-2.45-1.64,1.47-3.34,1.95-5.06,1.87-.94.95-2.21,1.76-3.73,2.19-4.04,2.49-3.11,1.41-5,5.55-1.06.05-1.69-1.27-1.31-2.14l1.5-3.45c-1.94-.27-4.62-.79-6.53-.43,1.56.43,2.75.76,4.08,1.32-.92,2.11-1.61,3.7-2.43,5.32-.87,1.72-3.25.08-4.39.04l-5.06-.19c-1.06-.04-1.87.22-2.58,1.09,2.72.28,9.47.84,12.27,1.07.87.07,2.16.22,2.71-.13.22-.14.55-1.35.72-1.15l.82.94c.66.76,1.82,1.1,2.6.8Z" class="cls-6"/><path d="M37.07,43.31c.04.91.15,2.13-.09,2.66-1.57,3.4-.6,3.76-1.58,4.25-2.22,1.13-2.96-8.65-1.6-10.75.26-.99-.13-3.35-.86-4.09l-3.83-3.88c-.83-.84-1.43-1.62-2.31-2.45-2.52-2.38,1.9-3.54-1.48-6.34-1.5-1.24-2.92-2.81-4.53-3.91-3.09-2.1-6.52-2.99-10.12-4.43l2.83-.55-2.94-.58c1.1-.99,2.38-1.01,3.71-.84,4.23.52,8.18.68,12.43.17,1.08-.13,2.13.01,3.28.33l-2.92.87c-.74.22-1.71,1.24-1.78,1.92.69.15,1.77.53,2.35.58l4.13.31c.37.03,1.24-.25,1.47-.51.3-.34-.29-.59-.72-2.25-.48-1.81,8.52,5.09,6.56,14.91.36,3.51,1.57,5.7,2.63,7.05,0,0,2.43,3.12,15.63,7.25,0,0,0,0,0,0,4.06,1.82-1.52.55-2.55.2-.98-.33-3.44-.77-10.02-1.26-5.69-.39-7.74.37-7.7,1.35Z"/><path d="M50.4,79.98c-6.85-1.32-7.3-4.22-10.03-10.04-.72-1.54-1.41-2.43-.98-4.26.53-2.29-.35-5.25.4-7.49.59-1.74,1.77-2.81,1.37-4.94-.17-.87.91-2.61,1.74-2.54,1.46.71,4.06,1.39,5.66,1.48,1.63,5.2,3.19,11.67,4.11,17.04.4,2.84,1.01,8.79,1.73,11.61l-3.99-.85Z"/><path d="M47.08,100.62c-.78.3-1.94-.04-2.6-.8l-.82-.94c-.17-.19-.5,1.02-.72,1.15-.55.34-1.84.2-2.71.13-2.82-.23-9.53-.79-12.27-1.07.7-.87,1.52-1.12,2.58-1.09l5.06.19c1.14.04,3.52,1.68,4.39-.04.82-1.62,1.51-3.21,2.43-5.32-1.32-.56-2.51-.89-4.08-1.32,1.9-.36,4.59.16,6.53.43l-1.5,3.45c-.38.87.25,2.19,1.31,2.14,1.89-4.14.97-3.06,5-5.55,1.52-.43,2.79-1.23,3.73-2.19,1.72.07,3.42-.4,5.06-1.87,1.08.28,2.14,1.71,3.14,2.45s2.21,1.65,3.2,2.2l13.7,7.65c-.14,1.92-4.65,1.03-5.9.5l-1.12.41-2.97-1.56c-.41.28-.89.76-1.13.65-3.1-1.44-6.31-2.8-8.66-5.35.39-1.6,2.03-1.12,3.24-1.36s.36-1.94-.44-2.23c-1.12-.4-2.06.28-2.61,1.51l-1.46-.63.6,1.81c-3.72-.92-6.25-1.72-9.03,1.62-.74.87-3.11,2.37-2.89,3.46.07.36.42.83.92,1.59Z"/><path d="M57.33,43.03c-.37.24-.61.58-.37.73,2.56.54,4.27,1.64,4.49,4.3-1.35.2-2.41.22-3.61,1.59l6.47,1.95,3.26.88c-3.93.32-7.5-1.96-11.36-.92l3.57.91,3.51.89c2.91.74,8.27,4.39,8.28,2.71v-1.8s1.93-.41,1.93-.41c-.46-5.96-11.53-8.85-16.18-10.81Z"/><path d="M26.82,26.16c-6.13,16.97-7.9,56.39,9.06,64.33,1.3.53,6.01,2.05,8.56,1.95" class="cls-1"/><path d="M52.93,76.8s.94,5.35,2.91,8.37c1.67,2.56,4.46,4.62,4.54,4.73" class="cls-4"/></g></g><g id="Plan_6" data-name="Plan 6"><g><g><path d="M110.37,12.77c-2.29,11.64-4.59,23.28-6.88,34.92q-1.24,6.31-1.24,6.31c-4.1,20.47-6.77,30.68-6.09,30.89,1.35.42,6.15-40.96,34.16-57.63,8.01-4.77,15.78-6.24,20.06-6.79" class="cls-3"/><path d="M205.43,88.41c-30.32,14.11-55.06,13.35-66.47,10.19-10.81-2.99-25.2-9.38-30.77-21.34-4.58-9.86-2.19-19.79-.76-24.29" class="cls-3"/></g><ellipse cx="151.41" cy="65.77" class="cls-5" rx="19.5" ry="34.23" transform="translate(76.42 212.84) rotate(-86.46)"/><g><path d="M198.2,35.86c-3.19,7.56-4.96,11.93-4.96,11.93" class="cls-2"/><path d="M216.2,58.92c-3.24-1.45-7.3-2.61-10.61-.78-1.5.79-2.25,2.68-.98,3.99,2.07,2.17,6.19,2.59,8.48,4.44,4.19,3.22-1.06,5.75-4.33,6.49-5.27,1.22-12.52,2.32-17.38.39" class="cls-3"/></g><g><path d="M95.38,41.27c0,1.5-1.59,1.98-2.51,1.98s-2.13-.27-2.13-1.77,1.48-1.96,2.4-1.96,2.24.25,2.24,1.75Z" class="cls-5"/><path d="M91.67,50.82c-1.93,9.79-3.86,19.58-5.78,29.36" class="cls-3"/></g></g></g></svg>