<?xml version="1.0" encoding="UTF-8"?>
<svg id="Calque_2" data-name="Calque 2" xmlns="http://www.w3.org/2000/svg" viewBox="0 0 43.07 43.07">
  <defs>
    <style>
      .cls-1 {
        fill: #fff;
      }

      .cls-2 {
        fill: #666;
      }
    </style>
  </defs>
  <g id="Plan_6" data-name="Plan 6">
    <g>
      <path class="cls-2" d="M43.07,21.54c0,11.89-9.64,21.54-21.54,21.54S0,33.43,0,21.54,9.64,0,21.54,0s21.54,9.64,21.54,21.54ZM20.11,30.76c4.45-7,8.49-12.05,11.54-19.49-5.42,4.81-7.85,10.8-11.95,16.45-2.92-2.44-4.93-4.46-8.21-5.8,2.29,3.67,4.84,5.69,8.61,8.84Z"/>
      <path class="cls-1" d="M20.11,30.76c-4-3.34-10.35-8.54-8.61-8.84,3.28,1.34,5.29,3.36,8.21,5.8,4.43-6.11,12.59-19.46,11.99-16.43-3.05,7.44-7.14,12.47-11.59,19.47Z"/>
    </g>
  </g>
</svg>