<svg xmlns="http://www.w3.org/2000/svg" id="Calque_2" data-name="Calque 2" viewBox="0 0 96.26 84.23"><g id="Plan_6" data-name="Plan 6"><g><path d="M96.26,14.69v1.47l-8.13,32.46c-.35,1.39-1.5,2.34-2.99,2.34h-50.12c1.11,3.73,1.88,7.62,6.19,8.25,2.26.33,4.4.27,6.76.26h36.23c1.84-.02,3.17,1.36,3.18,3.04s-1.32,3.11-3.17,3.11h-39.61c-5.34,0-10.22-1.26-12.87-6.16-1.05-1.94-1.86-3.89-2.44-6.08L17.84,10.25c-.72-2.71-3.18-4.07-5.8-4.08l-9.02-.04C1.29,6.12.02,4.69,0,3.09S1.26,0,2.99,0h8.47c5.45,0,10.24,2.52,12.04,7.87.49,1.46.83,2.91,1.26,4.51h68.45c1.6,0,2.45,1.09,3.04,2.32ZM82.78,44.81l6.47-26.27H26.41s6.95,26.27,6.95,26.27h49.42Z"/><circle cx="75.22" cy="76.71" r="7.52"/><circle cx="42.24" cy="76.71" r="7.52"/></g></g></svg>