<?xml version="1.0" encoding="UTF-8"?>
<svg id="Calque_2" data-name="Calque 2" xmlns="http://www.w3.org/2000/svg" viewBox="0 0 54.9 34.97">
  <g id="Plan_6" data-name="Plan 6">
    <g>
      <path d="M0,17.91v-.86l.26-.52C2.49,11.98,13.27,3.53,20.16,1.21c8.32-2.8,16.19-.48,23.16,4.4,4.28,2.99,7.99,6.63,11.18,10.74.53.68.53,1.59,0,2.27-3.19,4.11-6.9,7.75-11.18,10.74-6.94,4.85-14.77,7.19-23.07,4.43C13.31,31.48,2.5,23.01.26,18.44l-.26-.52ZM33.66,30.3c6.71-2.26,12.61-7.46,17.12-12.81-4.45-5.28-10.24-10.37-16.75-12.68-4.32-1.58-8.86-1.57-13.18,0-6.51,2.3-12.3,7.39-16.75,12.68,4.46,5.28,10.24,10.37,16.75,12.68,4.18,1.52,8.55,1.6,12.81.13Z"/>
      <path d="M38.3,17.48c0,5.99-4.86,10.85-10.85,10.85s-10.85-4.86-10.85-10.85,4.86-10.85,10.85-10.85,10.85,4.86,10.85,10.85ZM34.68,17.48c0-4-3.24-7.24-7.24-7.24s-7.24,3.24-7.24,7.24,3.24,7.24,7.24,7.24,7.24-3.24,7.24-7.24Z"/>
    </g>
  </g>
</svg>